<svg xmlns="http://www.w3.org/2000/svg" version="1.1" xmlns:xlink="http://www.w3.org/1999/xlink" xmlns:svgjs="http://svgjs.dev/svgjs" viewBox="0 0 800 800"><defs><linearGradient x1="50%" y1="0%" x2="50%" y2="100%" id="ffflurry-grad" gradientTransform="rotate(270)"><stop stop-color="hsl(0, 0%, 0%)" stop-opacity="1" offset="0%"></stop><stop stop-color="hsl(230, 55%, 50%)" stop-opacity="1" offset="45%"></stop><stop stop-color="hsl(230, 55%, 70%)" stop-opacity="1" offset="100%"></stop></linearGradient></defs><rect width="100%" height="100%" fill="hsl(0, 0%, 0%)"></rect><g fill="url(#ffflurry-grad)"><rect width="121" height="2" x="431.5" y="572" rx="1" transform="rotate(334, 492, 573)" opacity="0.93"></rect><rect width="52" height="2" x="409" y="643" rx="1" transform="rotate(334, 435, 644)" opacity="0.08"></rect><rect width="307" height="2" x="74.5" y="219" rx="1" transform="rotate(334, 228, 220)" opacity="0.87"></rect><rect width="221" height="2" x="624.5" y="685" rx="1" transform="rotate(334, 735, 686)" opacity="0.23"></rect><rect width="289" height="2" x="-84.5" y="491" rx="1" transform="rotate(334, 60, 492)" opacity="0.12"></rect><rect width="99" height="2" x="253.5" y="759" rx="1" transform="rotate(334, 303, 760)" opacity="0.80"></rect><rect width="212" height="2" x="47" y="436" rx="1" transform="rotate(334, 153, 437)" opacity="0.24"></rect><rect width="91" height="2" x="260.5" y="38" rx="1" transform="rotate(334, 306, 39)" opacity="0.88"></rect><rect width="80" height="2" x="251" y="478" rx="1" transform="rotate(334, 291, 479)" opacity="0.47"></rect><rect width="74" height="2" x="57" y="162" rx="1" transform="rotate(334, 94, 163)" opacity="0.34"></rect><rect width="263" height="2" x="552.5" y="398" rx="1" transform="rotate(334, 684, 399)" opacity="0.12"></rect><rect width="257" height="2" x="487.5" y="483" rx="1" transform="rotate(334, 616, 484)" opacity="0.95"></rect><rect width="211" height="2" x="489.5" y="741" rx="1" transform="rotate(334, 595, 742)" opacity="0.58"></rect><rect width="167" height="2" x="453.5" y="255" rx="1" transform="rotate(334, 537, 256)" opacity="0.21"></rect><rect width="252" height="2" x="330" y="422" rx="1" transform="rotate(334, 456, 423)" opacity="0.23"></rect><rect width="221" height="2" x="130.5" y="374" rx="1" transform="rotate(334, 241, 375)" opacity="0.33"></rect><rect width="107" height="2" x="301.5" y="682" rx="1" transform="rotate(334, 355, 683)" opacity="0.30"></rect><rect width="152" height="2" x="-44" y="142" rx="1" transform="rotate(334, 32, 143)" opacity="0.59"></rect><rect width="264" height="2" x="178" y="241" rx="1" transform="rotate(334, 310, 242)" opacity="0.88"></rect><rect width="280" height="2" x="327" y="735" rx="1" transform="rotate(334, 467, 736)" opacity="0.39"></rect><rect width="282" height="2" x="251" y="524" rx="1" transform="rotate(334, 392, 525)" opacity="0.76"></rect><rect width="279" height="2" x="335.5" y="140" rx="1" transform="rotate(334, 475, 141)" opacity="0.27"></rect><rect width="277" height="2" x="108.5" y="685" rx="1" transform="rotate(334, 247, 686)" opacity="0.19"></rect><rect width="92" height="2" x="129" y="118" rx="1" transform="rotate(334, 175, 119)" opacity="0.11"></rect><rect width="127" height="2" x="453.5" y="491" rx="1" transform="rotate(334, 517, 492)" opacity="0.91"></rect><rect width="97" height="2" x="39.5" y="285" rx="1" transform="rotate(334, 88, 286)" opacity="0.56"></rect><rect width="234" height="2" x="-69" y="586" rx="1" transform="rotate(334, 48, 587)" opacity="0.82"></rect><rect width="288" height="2" x="189" y="360" rx="1" transform="rotate(334, 333, 361)" opacity="0.10"></rect><rect width="381" height="2" x="515.5" y="592" rx="1" transform="rotate(334, 706, 593)" opacity="0.89"></rect><rect width="92" height="2" x="335" y="427" rx="1" transform="rotate(334, 381, 428)" opacity="0.57"></rect><rect width="132" height="2" x="66" y="207" rx="1" transform="rotate(334, 132, 208)" opacity="0.87"></rect><rect width="207" height="2" x="-55.5" y="79" rx="1" transform="rotate(334, 48, 80)" opacity="0.34"></rect><rect width="91" height="2" x="39.5" y="667" rx="1" transform="rotate(334, 85, 668)" opacity="0.94"></rect><rect width="84" height="2" x="51" y="30" rx="1" transform="rotate(334, 93, 31)" opacity="0.89"></rect><rect width="263" height="2" x="243.5" y="281" rx="1" transform="rotate(334, 375, 282)" opacity="0.63"></rect><rect width="28" height="2" x="395" y="771" rx="1" transform="rotate(334, 409, 772)" opacity="0.12"></rect><rect width="96" height="2" x="406" y="509" rx="1" transform="rotate(334, 454, 510)" opacity="0.35"></rect><rect width="283" height="2" x="299.5" y="227" rx="1" transform="rotate(334, 441, 228)" opacity="0.79"></rect><rect width="303" height="2" x="5.5" y="600" rx="1" transform="rotate(334, 157, 601)" opacity="0.10"></rect><rect width="188" height="2" x="150" y="542" rx="1" transform="rotate(334, 244, 543)" opacity="0.80"></rect><rect width="172" height="2" x="-18" y="757" rx="1" transform="rotate(334, 68, 758)" opacity="0.85"></rect><rect width="192" height="2" x="259" y="591" rx="1" transform="rotate(334, 355, 592)" opacity="0.23"></rect><rect width="332" height="2" x="238" y="48" rx="1" transform="rotate(334, 404, 49)" opacity="0.59"></rect><rect width="73" height="2" x="604.5" y="118" rx="1" transform="rotate(334, 641, 119)" opacity="0.31"></rect><rect width="114" height="2" x="-33" y="278" rx="1" transform="rotate(334, 24, 279)" opacity="0.52"></rect><rect width="298" height="2" x="442" y="378" rx="1" transform="rotate(334, 591, 379)" opacity="0.65"></rect><rect width="309" height="2" x="435.5" y="574" rx="1" transform="rotate(334, 590, 575)" opacity="0.16"></rect><rect width="171" height="2" x="562.5" y="35" rx="1" transform="rotate(334, 648, 36)" opacity="0.51"></rect><rect width="282" height="2" x="300" y="333" rx="1" transform="rotate(334, 441, 334)" opacity="0.62"></rect><rect width="229" height="2" x="616.5" y="766" rx="1" transform="rotate(334, 731, 767)" opacity="0.52"></rect><rect width="240" height="2" x="207" y="134" rx="1" transform="rotate(334, 327, 135)" opacity="0.86"></rect><rect width="343" height="2" x="-118.5" y="372" rx="1" transform="rotate(334, 53, 373)" opacity="0.46"></rect><rect width="164" height="2" x="441" y="342" rx="1" transform="rotate(334, 523, 343)" opacity="0.80"></rect><rect width="283" height="2" x="514.5" y="299" rx="1" transform="rotate(334, 656, 300)" opacity="0.27"></rect><rect width="100" height="2" x="703" y="73" rx="1" transform="rotate(334, 753, 74)" opacity="0.91"></rect><rect width="167" height="2" x="445.5" y="426" rx="1" transform="rotate(334, 529, 427)" opacity="0.92"></rect><rect width="329" height="2" x="584.5" y="235" rx="1" transform="rotate(334, 749, 236)" opacity="0.62"></rect><rect width="291" height="2" x="33.5" y="746" rx="1" transform="rotate(334, 179, 747)" opacity="0.99"></rect><rect width="157" height="2" x="-45.5" y="207" rx="1" transform="rotate(334, 33, 208)" opacity="0.97"></rect><rect width="168" height="2" x="-64" y="690" rx="1" transform="rotate(334, 20, 691)" opacity="0.84"></rect><rect width="162" height="2" x="189" y="617" rx="1" transform="rotate(334, 270, 618)" opacity="0.74"></rect><rect width="123" height="2" x="156.5" y="48" rx="1" transform="rotate(334, 218, 49)" opacity="0.96"></rect><rect width="311" height="2" x="459.5" y="195" rx="1" transform="rotate(334, 615, 196)" opacity="0.91"></rect><rect width="235" height="2" x="407.5" y="50" rx="1" transform="rotate(334, 525, 51)" opacity="0.77"></rect><rect width="211" height="2" x="430.5" y="660" rx="1" transform="rotate(334, 536, 661)" opacity="0.84"></rect><rect width="224" height="2" x="54" y="292" rx="1" transform="rotate(334, 166, 293)" opacity="0.66"></rect><rect width="325" height="2" x="592.5" y="452" rx="1" transform="rotate(334, 755, 453)" opacity="0.12"></rect></g></svg>